<svg xmlns="http://www.w3.org/2000/svg" width="1100" height="650" viewBox="0 0 1100 650">
<rect width="100%" height="100%" fill="white"/>
<g font-family="-apple-system,BlinkMacSystemFont,Segoe UI,sans-serif" fill="#1d2733">
<text x="550.0" y="33.0" font-size="18" text-anchor="middle">Primitive verification scaling by payload size</text>
<line x1="105" y1="565.0" x2="855" y2="565.0" stroke="#d9e0e6"/>
<text x="95.0" y="569.0" font-size="11" text-anchor="end">10^1</text>
<line x1="105" y1="398.3" x2="855" y2="398.3" stroke="#d9e0e6"/>
<text x="95.0" y="402.3" font-size="11" text-anchor="end">10^2</text>
<line x1="105" y1="231.7" x2="855" y2="231.7" stroke="#d9e0e6"/>
<text x="95.0" y="235.7" font-size="11" text-anchor="end">10^3</text>
<line x1="105" y1="65.0" x2="855" y2="65.0" stroke="#d9e0e6"/>
<text x="95.0" y="69.0" font-size="11" text-anchor="end">10^4</text>
<line x1="105.0" y1="65" x2="105.0" y2="565" stroke="#eef1f4"/>
<text x="105.0" y="585.0" font-size="10" text-anchor="middle">32</text>
<line x1="188.3" y1="65" x2="188.3" y2="565" stroke="#eef1f4"/>
<text x="188.3" y="585.0" font-size="10" text-anchor="middle">64</text>
<line x1="271.7" y1="65" x2="271.7" y2="565" stroke="#eef1f4"/>
<text x="271.7" y="585.0" font-size="10" text-anchor="middle">128</text>
<line x1="320.4" y1="65" x2="320.4" y2="565" stroke="#eef1f4"/>
<text x="320.4" y="585.0" font-size="10" text-anchor="middle">128</text>
<line x1="355.0" y1="65" x2="355.0" y2="565" stroke="#eef1f4"/>
<text x="355.0" y="585.0" font-size="10" text-anchor="middle">256</text>
<line x1="438.3" y1="65" x2="438.3" y2="565" stroke="#eef1f4"/>
<text x="438.3" y="585.0" font-size="10" text-anchor="middle">512</text>
<line x1="521.7" y1="65" x2="521.7" y2="565" stroke="#eef1f4"/>
<text x="521.7" y="585.0" font-size="10" text-anchor="middle">1024</text>
<line x1="688.3" y1="65" x2="688.3" y2="565" stroke="#eef1f4"/>
<text x="688.3" y="585.0" font-size="10" text-anchor="middle">4096</text>
<line x1="855.0" y1="65" x2="855.0" y2="565" stroke="#eef1f4"/>
<text x="855.0" y="585.0" font-size="10" text-anchor="middle">16384</text>
<polyline points="105.0,437.7 188.3,437.6 271.7,428.3 320.4,437.3 355.0,437.4 438.3,401.4 521.7,435.7 688.3,419.4 855.0,386.4" fill="none" stroke="#355C7D" stroke-width="2"/>
<circle cx="105.0" cy="437.7" r="3" fill="#355C7D"/>
<circle cx="188.3" cy="437.6" r="3" fill="#355C7D"/>
<circle cx="271.7" cy="428.3" r="3" fill="#355C7D"/>
<circle cx="320.4" cy="437.3" r="3" fill="#355C7D"/>
<circle cx="355.0" cy="437.4" r="3" fill="#355C7D"/>
<circle cx="438.3" cy="401.4" r="3" fill="#355C7D"/>
<circle cx="521.7" cy="435.7" r="3" fill="#355C7D"/>
<circle cx="688.3" cy="419.4" r="3" fill="#355C7D"/>
<circle cx="855.0" cy="386.4" r="3" fill="#355C7D"/>
<line x1="880" y1="81" x2="910" y2="81" stroke="#355C7D" stroke-width="3"/>
<text x="917.0" y="85.0" font-size="10" text-anchor="start">FN-DSA-1024</text>
<polyline points="105.0,351.8 188.3,340.6 271.7,353.3 320.4,353.2 355.0,364.3 438.3,363.5 521.7,362.3 688.3,361.4 855.0,331.7" fill="none" stroke="#C06C84" stroke-width="2"/>
<circle cx="105.0" cy="351.8" r="3" fill="#C06C84"/>
<circle cx="188.3" cy="340.6" r="3" fill="#C06C84"/>
<circle cx="271.7" cy="353.3" r="3" fill="#C06C84"/>
<circle cx="320.4" cy="353.2" r="3" fill="#C06C84"/>
<circle cx="355.0" cy="364.3" r="3" fill="#C06C84"/>
<circle cx="438.3" cy="363.5" r="3" fill="#C06C84"/>
<circle cx="521.7" cy="362.3" r="3" fill="#C06C84"/>
<circle cx="688.3" cy="361.4" r="3" fill="#C06C84"/>
<circle cx="855.0" cy="331.7" r="3" fill="#C06C84"/>
<line x1="880" y1="105" x2="910" y2="105" stroke="#C06C84" stroke-width="3"/>
<text x="917.0" y="109.0" font-size="10" text-anchor="start">ML-DSA-65</text>
<polyline points="105.0,346.0 188.3,363.5 271.7,366.6 320.4,366.6 355.0,360.2 438.3,357.6 521.7,364.7 688.3,362.7 855.0,330.0" fill="none" stroke="#6C5B7B" stroke-width="2"/>
<circle cx="105.0" cy="346.0" r="3" fill="#6C5B7B"/>
<circle cx="188.3" cy="363.5" r="3" fill="#6C5B7B"/>
<circle cx="271.7" cy="366.6" r="3" fill="#6C5B7B"/>
<circle cx="320.4" cy="366.6" r="3" fill="#6C5B7B"/>
<circle cx="355.0" cy="360.2" r="3" fill="#6C5B7B"/>
<circle cx="438.3" cy="357.6" r="3" fill="#6C5B7B"/>
<circle cx="521.7" cy="364.7" r="3" fill="#6C5B7B"/>
<circle cx="688.3" cy="362.7" r="3" fill="#6C5B7B"/>
<circle cx="855.0" cy="330.0" r="3" fill="#6C5B7B"/>
<line x1="880" y1="129" x2="910" y2="129" stroke="#6C5B7B" stroke-width="3"/>
<text x="917.0" y="133.0" font-size="10" text-anchor="start">ML-DSA-87</text>
<polyline points="105.0,204.0 188.3,205.1 271.7,206.5 320.4,200.0 355.0,206.9 438.3,206.1 521.7,203.3 688.3,207.5 855.0,199.7" fill="none" stroke="#F67280" stroke-width="2"/>
<circle cx="105.0" cy="204.0" r="3" fill="#F67280"/>
<circle cx="188.3" cy="205.1" r="3" fill="#F67280"/>
<circle cx="271.7" cy="206.5" r="3" fill="#F67280"/>
<circle cx="320.4" cy="200.0" r="3" fill="#F67280"/>
<circle cx="355.0" cy="206.9" r="3" fill="#F67280"/>
<circle cx="438.3" cy="206.1" r="3" fill="#F67280"/>
<circle cx="521.7" cy="203.3" r="3" fill="#F67280"/>
<circle cx="688.3" cy="207.5" r="3" fill="#F67280"/>
<circle cx="855.0" cy="199.7" r="3" fill="#F67280"/>
<line x1="880" y1="153" x2="910" y2="153" stroke="#F67280" stroke-width="3"/>
<text x="917.0" y="157.0" font-size="10" text-anchor="start">SLH-DSA-SHAKE-128f-simple</text>
<text x="480.0" y="630.0" font-size="12" text-anchor="middle">Message bytes (log2 scale)</text>
<text x="24.0" y="315.0" font-size="12" text-anchor="middle" transform="rotate(-90 24.0 315.0)">Median latency (microseconds, log scale)</text>
</g></svg>
