<svg xmlns="http://www.w3.org/2000/svg" width="1200" height="650" viewBox="0 0 1200 650">
<rect width="100%" height="100%" fill="white"/>
<g font-family="-apple-system,BlinkMacSystemFont,Segoe UI,sans-serif" fill="#1d2733">
<text x="600.0" y="35.0" font-size="18" text-anchor="middle">Aegis policy/domain verification: cache miss vs exact replay</text>
<line x1="110" y1="460.0" x2="1165" y2="460.0" stroke="#d9e0e6" stroke-width="1"/>
<text x="98.0" y="464.0" font-size="11" text-anchor="end">10^0</text>
<line x1="110" y1="330.0" x2="1165" y2="330.0" stroke="#d9e0e6" stroke-width="1"/>
<text x="98.0" y="334.0" font-size="11" text-anchor="end">10^1</text>
<line x1="110" y1="200.0" x2="1165" y2="200.0" stroke="#d9e0e6" stroke-width="1"/>
<text x="98.0" y="204.0" font-size="11" text-anchor="end">10^2</text>
<line x1="110" y1="70.0" x2="1165" y2="70.0" stroke="#d9e0e6" stroke-width="1"/>
<text x="98.0" y="74.0" font-size="11" text-anchor="end">10^3</text>
<rect x="128.5" y="343.5" width="95.0" height="116.5" fill="#99B898"/>
<text x="175.9" y="478.0" font-size="9" text-anchor="end" transform="rotate(-38 175.9 478.0)">ML-DSA-65 / cache_hit</text>
<rect x="260.3" y="186.8" width="95.0" height="273.2" fill="#6C5B7B"/>
<text x="307.8" y="478.0" font-size="9" text-anchor="end" transform="rotate(-38 307.8 478.0)">ML-DSA-65 / cache_miss</text>
<rect x="392.2" y="365.9" width="95.0" height="94.1" fill="#99B898"/>
<text x="439.7" y="478.0" font-size="9" text-anchor="end" transform="rotate(-38 439.7 478.0)">FN-DSA-1024 / cache_hit</text>
<rect x="524.1" y="202.3" width="95.0" height="257.7" fill="#6C5B7B"/>
<text x="571.6" y="478.0" font-size="9" text-anchor="end" transform="rotate(-38 571.6 478.0)">FN-DSA-1024 / cache_miss</text>
<rect x="656.0" y="347.5" width="95.0" height="112.5" fill="#99B898"/>
<text x="703.4" y="478.0" font-size="9" text-anchor="end" transform="rotate(-38 703.4 478.0)">ML-DSA-65 / cache_hit</text>
<rect x="787.8" y="187.0" width="95.0" height="273.0" fill="#6C5B7B"/>
<text x="835.3" y="478.0" font-size="9" text-anchor="end" transform="rotate(-38 835.3 478.0)">ML-DSA-65 / cache_miss</text>
<rect x="919.7" y="331.7" width="95.0" height="128.3" fill="#99B898"/>
<text x="967.2" y="478.0" font-size="9" text-anchor="end" transform="rotate(-38 967.2 478.0)">ML-DSA-87 / cache_hit</text>
<rect x="1051.6" y="163.9" width="95.0" height="296.1" fill="#6C5B7B"/>
<text x="1099.1" y="478.0" font-size="9" text-anchor="end" transform="rotate(-38 1099.1 478.0)">ML-DSA-87 / cache_miss</text>
<line x1="110" y1="70" x2="110" y2="460" stroke="#1d2733"/>
<line x1="110" y1="460" x2="1165" y2="460" stroke="#1d2733"/>
<text x="25.0" y="265.0" font-size="12" text-anchor="middle" transform="rotate(-90 25.0 265.0)">Median latency (microseconds, log scale)</text>
</g></svg>
