<svg xmlns="http://www.w3.org/2000/svg" width="1100" height="650" viewBox="0 0 1100 650">
<rect width="100%" height="100%" fill="white"/>
<g font-family="-apple-system,BlinkMacSystemFont,Segoe UI,sans-serif" fill="#1d2733">
<text x="550.0" y="33.0" font-size="18" text-anchor="middle">Transaction serialization size by payload</text>
<line x1="105" y1="565.0" x2="855" y2="565.0" stroke="#d9e0e6"/>
<text x="95.0" y="569.0" font-size="11" text-anchor="end">10^2</text>
<line x1="105" y1="440.0" x2="855" y2="440.0" stroke="#d9e0e6"/>
<text x="95.0" y="444.0" font-size="11" text-anchor="end">10^3</text>
<line x1="105" y1="315.0" x2="855" y2="315.0" stroke="#d9e0e6"/>
<text x="95.0" y="319.0" font-size="11" text-anchor="end">10^4</text>
<line x1="105" y1="190.0" x2="855" y2="190.0" stroke="#d9e0e6"/>
<text x="95.0" y="194.0" font-size="11" text-anchor="end">10^5</text>
<line x1="105" y1="65.0" x2="855" y2="65.0" stroke="#d9e0e6"/>
<text x="95.0" y="69.0" font-size="11" text-anchor="end">10^6</text>
<line x1="105.0" y1="65" x2="105.0" y2="565" stroke="#eef1f4"/>
<text x="105.0" y="585.0" font-size="10" text-anchor="middle">32</text>
<line x1="188.3" y1="65" x2="188.3" y2="565" stroke="#eef1f4"/>
<text x="188.3" y="585.0" font-size="10" text-anchor="middle">64</text>
<line x1="271.7" y1="65" x2="271.7" y2="565" stroke="#eef1f4"/>
<text x="271.7" y="585.0" font-size="10" text-anchor="middle">128</text>
<line x1="320.4" y1="65" x2="320.4" y2="565" stroke="#eef1f4"/>
<text x="320.4" y="585.0" font-size="10" text-anchor="middle">192</text>
<line x1="355.0" y1="65" x2="355.0" y2="565" stroke="#eef1f4"/>
<text x="355.0" y="585.0" font-size="10" text-anchor="middle">256</text>
<line x1="438.3" y1="65" x2="438.3" y2="565" stroke="#eef1f4"/>
<text x="438.3" y="585.0" font-size="10" text-anchor="middle">512</text>
<line x1="521.7" y1="65" x2="521.7" y2="565" stroke="#eef1f4"/>
<text x="521.7" y="585.0" font-size="10" text-anchor="middle">1024</text>
<line x1="688.3" y1="65" x2="688.3" y2="565" stroke="#eef1f4"/>
<text x="688.3" y="585.0" font-size="10" text-anchor="middle">4096</text>
<line x1="855.0" y1="65" x2="855.0" y2="565" stroke="#eef1f4"/>
<text x="855.0" y="585.0" font-size="10" text-anchor="middle">16384</text>
<polyline points="105.0,233.0 188.3,232.7 271.7,232.4 320.4,232.0 355.0,231.6 438.3,230.3 521.7,227.4 688.3,213.7 855.0,178.7" fill="none" stroke="#355C7D" stroke-width="2"/>
<circle cx="105.0" cy="233.0" r="3" fill="#355C7D"/>
<circle cx="188.3" cy="232.7" r="3" fill="#355C7D"/>
<circle cx="271.7" cy="232.4" r="3" fill="#355C7D"/>
<circle cx="320.4" cy="232.0" r="3" fill="#355C7D"/>
<circle cx="355.0" cy="231.6" r="3" fill="#355C7D"/>
<circle cx="438.3" cy="230.3" r="3" fill="#355C7D"/>
<circle cx="521.7" cy="227.4" r="3" fill="#355C7D"/>
<circle cx="688.3" cy="213.7" r="3" fill="#355C7D"/>
<circle cx="855.0" cy="178.7" r="3" fill="#355C7D"/>
<line x1="880" y1="81" x2="910" y2="81" stroke="#355C7D" stroke-width="3"/>
<text x="917.0" y="85.0" font-size="10" text-anchor="start">Aegis legacy carrier JSON</text>
<polyline points="105.0,262.6 188.3,262.5 271.7,262.4 320.4,262.3 355.0,262.1 438.3,261.6 521.7,260.6 688.3,254.7 855.0,236.3" fill="none" stroke="#C06C84" stroke-width="2"/>
<circle cx="105.0" cy="262.6" r="3" fill="#C06C84"/>
<circle cx="188.3" cy="262.5" r="3" fill="#C06C84"/>
<circle cx="271.7" cy="262.4" r="3" fill="#C06C84"/>
<circle cx="320.4" cy="262.3" r="3" fill="#C06C84"/>
<circle cx="355.0" cy="262.1" r="3" fill="#C06C84"/>
<circle cx="438.3" cy="261.6" r="3" fill="#C06C84"/>
<circle cx="521.7" cy="260.6" r="3" fill="#C06C84"/>
<circle cx="688.3" cy="254.7" r="3" fill="#C06C84"/>
<circle cx="855.0" cy="236.3" r="3" fill="#C06C84"/>
<line x1="880" y1="105" x2="910" y2="105" stroke="#C06C84" stroke-width="3"/>
<text x="917.0" y="109.0" font-size="10" text-anchor="start">legacy signed JSON</text>
<polyline points="105.0,496.7 188.3,492.0 271.7,483.6 320.4,476.3 355.0,469.9 438.3,450.0 521.7,424.0 688.3,359.4 855.0,287.1" fill="none" stroke="#6C5B7B" stroke-width="2"/>
<circle cx="105.0" cy="496.7" r="3" fill="#6C5B7B"/>
<circle cx="188.3" cy="492.0" r="3" fill="#6C5B7B"/>
<circle cx="271.7" cy="483.6" r="3" fill="#6C5B7B"/>
<circle cx="320.4" cy="476.3" r="3" fill="#6C5B7B"/>
<circle cx="355.0" cy="469.9" r="3" fill="#6C5B7B"/>
<circle cx="438.3" cy="450.0" r="3" fill="#6C5B7B"/>
<circle cx="521.7" cy="424.0" r="3" fill="#6C5B7B"/>
<circle cx="688.3" cy="359.4" r="3" fill="#6C5B7B"/>
<circle cx="855.0" cy="287.1" r="3" fill="#6C5B7B"/>
<line x1="880" y1="129" x2="910" y2="129" stroke="#6C5B7B" stroke-width="3"/>
<text x="917.0" y="133.0" font-size="10" text-anchor="start">legacy unsigned JSON</text>
<text x="480.0" y="630.0" font-size="12" text-anchor="middle">Application payload bytes (log2 scale)</text>
<text x="24.0" y="315.0" font-size="12" text-anchor="middle" transform="rotate(-90 24.0 315.0)">Serialized bytes (log scale)</text>
</g></svg>
