<svg xmlns="http://www.w3.org/2000/svg" width="1100" height="650" viewBox="0 0 1100 650">
<rect width="100%" height="100%" fill="white"/>
<g font-family="-apple-system,BlinkMacSystemFont,Segoe UI,sans-serif" fill="#1d2733">
<text x="550.0" y="33.0" font-size="18" text-anchor="middle">Controlled verification burst tail latency</text>
<line x1="105" y1="565.0" x2="855" y2="565.0" stroke="#d9e0e6"/>
<text x="95.0" y="569.0" font-size="11" text-anchor="end">10^-1</text>
<line x1="105" y1="398.3" x2="855" y2="398.3" stroke="#d9e0e6"/>
<text x="95.0" y="402.3" font-size="11" text-anchor="end">10^0</text>
<line x1="105" y1="231.7" x2="855" y2="231.7" stroke="#d9e0e6"/>
<text x="95.0" y="235.7" font-size="11" text-anchor="end">10^1</text>
<line x1="105" y1="65.0" x2="855" y2="65.0" stroke="#d9e0e6"/>
<text x="95.0" y="69.0" font-size="11" text-anchor="end">10^2</text>
<line x1="105.0" y1="65" x2="105.0" y2="565" stroke="#eef1f4"/>
<text x="105.0" y="585.0" font-size="10" text-anchor="middle">1</text>
<line x1="212.1" y1="65" x2="212.1" y2="565" stroke="#eef1f4"/>
<text x="212.1" y="585.0" font-size="10" text-anchor="middle">2</text>
<line x1="319.3" y1="65" x2="319.3" y2="565" stroke="#eef1f4"/>
<text x="319.3" y="585.0" font-size="10" text-anchor="middle">4</text>
<line x1="426.4" y1="65" x2="426.4" y2="565" stroke="#eef1f4"/>
<text x="426.4" y="585.0" font-size="10" text-anchor="middle">8</text>
<line x1="533.6" y1="65" x2="533.6" y2="565" stroke="#eef1f4"/>
<text x="533.6" y="585.0" font-size="10" text-anchor="middle">16</text>
<line x1="747.9" y1="65" x2="747.9" y2="565" stroke="#eef1f4"/>
<text x="747.9" y="585.0" font-size="10" text-anchor="middle">64</text>
<line x1="750.3" y1="65" x2="750.3" y2="565" stroke="#eef1f4"/>
<text x="750.3" y="585.0" font-size="10" text-anchor="middle">65</text>
<line x1="855.0" y1="65" x2="855.0" y2="565" stroke="#eef1f4"/>
<text x="855.0" y="585.0" font-size="10" text-anchor="middle">128</text>
<polyline points="105.0,525.2 212.1,485.5 319.3,438.8 426.4,388.9 533.6,316.3 747.9,195.4 750.3,194.0 855.0,189.9" fill="none" stroke="#355C7D" stroke-width="2"/>
<circle cx="105.0" cy="525.2" r="3" fill="#355C7D"/>
<circle cx="212.1" cy="485.5" r="3" fill="#355C7D"/>
<circle cx="319.3" cy="438.8" r="3" fill="#355C7D"/>
<circle cx="426.4" cy="388.9" r="3" fill="#355C7D"/>
<circle cx="533.6" cy="316.3" r="3" fill="#355C7D"/>
<circle cx="747.9" cy="195.4" r="3" fill="#355C7D"/>
<circle cx="750.3" cy="194.0" r="3" fill="#355C7D"/>
<circle cx="855.0" cy="189.9" r="3" fill="#355C7D"/>
<line x1="880" y1="81" x2="910" y2="81" stroke="#355C7D" stroke-width="3"/>
<text x="917.0" y="85.0" font-size="10" text-anchor="start">workers1 p95</text>
<polyline points="105.0,511.2 212.1,473.8 319.3,435.0 426.4,387.8 533.6,313.0 747.9,195.0 750.3,193.0 855.0,189.3" fill="none" stroke="#C06C84" stroke-width="2"/>
<circle cx="105.0" cy="511.2" r="3" fill="#C06C84"/>
<circle cx="212.1" cy="473.8" r="3" fill="#C06C84"/>
<circle cx="319.3" cy="435.0" r="3" fill="#C06C84"/>
<circle cx="426.4" cy="387.8" r="3" fill="#C06C84"/>
<circle cx="533.6" cy="313.0" r="3" fill="#C06C84"/>
<circle cx="747.9" cy="195.0" r="3" fill="#C06C84"/>
<circle cx="750.3" cy="193.0" r="3" fill="#C06C84"/>
<circle cx="855.0" cy="189.3" r="3" fill="#C06C84"/>
<line x1="880" y1="105" x2="910" y2="105" stroke="#C06C84" stroke-width="3"/>
<text x="917.0" y="109.0" font-size="10" text-anchor="start">workers1 p99</text>
<polyline points="105.0,525.3 212.1,514.7 319.3,469.3 426.4,406.6 533.6,320.7 747.9,198.1 750.3,196.6 855.0,190.8" fill="none" stroke="#6C5B7B" stroke-width="2"/>
<circle cx="105.0" cy="525.3" r="3" fill="#6C5B7B"/>
<circle cx="212.1" cy="514.7" r="3" fill="#6C5B7B"/>
<circle cx="319.3" cy="469.3" r="3" fill="#6C5B7B"/>
<circle cx="426.4" cy="406.6" r="3" fill="#6C5B7B"/>
<circle cx="533.6" cy="320.7" r="3" fill="#6C5B7B"/>
<circle cx="747.9" cy="198.1" r="3" fill="#6C5B7B"/>
<circle cx="750.3" cy="196.6" r="3" fill="#6C5B7B"/>
<circle cx="855.0" cy="190.8" r="3" fill="#6C5B7B"/>
<line x1="880" y1="129" x2="910" y2="129" stroke="#6C5B7B" stroke-width="3"/>
<text x="917.0" y="133.0" font-size="10" text-anchor="start">workers2 p95</text>
<polyline points="105.0,484.7 212.1,506.5 319.3,462.1 426.4,396.1 533.6,319.0 747.9,197.5 750.3,195.1 855.0,184.2" fill="none" stroke="#F67280" stroke-width="2"/>
<circle cx="105.0" cy="484.7" r="3" fill="#F67280"/>
<circle cx="212.1" cy="506.5" r="3" fill="#F67280"/>
<circle cx="319.3" cy="462.1" r="3" fill="#F67280"/>
<circle cx="426.4" cy="396.1" r="3" fill="#F67280"/>
<circle cx="533.6" cy="319.0" r="3" fill="#F67280"/>
<circle cx="747.9" cy="197.5" r="3" fill="#F67280"/>
<circle cx="750.3" cy="195.1" r="3" fill="#F67280"/>
<circle cx="855.0" cy="184.2" r="3" fill="#F67280"/>
<line x1="880" y1="153" x2="910" y2="153" stroke="#F67280" stroke-width="3"/>
<text x="917.0" y="157.0" font-size="10" text-anchor="start">workers2 p99</text>
<polyline points="105.0,524.2 212.1,503.7 319.3,476.7 426.4,405.3 533.6,315.3 747.9,195.2 750.3,193.5 855.0,188.0" fill="none" stroke="#2A9D8F" stroke-width="2"/>
<circle cx="105.0" cy="524.2" r="3" fill="#2A9D8F"/>
<circle cx="212.1" cy="503.7" r="3" fill="#2A9D8F"/>
<circle cx="319.3" cy="476.7" r="3" fill="#2A9D8F"/>
<circle cx="426.4" cy="405.3" r="3" fill="#2A9D8F"/>
<circle cx="533.6" cy="315.3" r="3" fill="#2A9D8F"/>
<circle cx="747.9" cy="195.2" r="3" fill="#2A9D8F"/>
<circle cx="750.3" cy="193.5" r="3" fill="#2A9D8F"/>
<circle cx="855.0" cy="188.0" r="3" fill="#2A9D8F"/>
<line x1="880" y1="177" x2="910" y2="177" stroke="#2A9D8F" stroke-width="3"/>
<text x="917.0" y="181.0" font-size="10" text-anchor="start">workers4 p95</text>
<polyline points="105.0,512.4 212.1,499.4 319.3,472.7 426.4,396.5 533.6,310.8 747.9,194.9 750.3,192.4 855.0,185.0" fill="none" stroke="#E9C46A" stroke-width="2"/>
<circle cx="105.0" cy="512.4" r="3" fill="#E9C46A"/>
<circle cx="212.1" cy="499.4" r="3" fill="#E9C46A"/>
<circle cx="319.3" cy="472.7" r="3" fill="#E9C46A"/>
<circle cx="426.4" cy="396.5" r="3" fill="#E9C46A"/>
<circle cx="533.6" cy="310.8" r="3" fill="#E9C46A"/>
<circle cx="747.9" cy="194.9" r="3" fill="#E9C46A"/>
<circle cx="750.3" cy="192.4" r="3" fill="#E9C46A"/>
<circle cx="855.0" cy="185.0" r="3" fill="#E9C46A"/>
<line x1="880" y1="201" x2="910" y2="201" stroke="#E9C46A" stroke-width="3"/>
<text x="917.0" y="205.0" font-size="10" text-anchor="start">workers4 p99</text>
<text x="480.0" y="630.0" font-size="12" text-anchor="middle">Concurrent verification attempts (log2 scale)</text>
<text x="24.0" y="315.0" font-size="12" text-anchor="middle" transform="rotate(-90 24.0 315.0)">Burst wall latency (milliseconds, log scale)</text>
</g></svg>
