<svg xmlns="http://www.w3.org/2000/svg" width="1200" height="650" viewBox="0 0 1200 650">
<rect width="100%" height="100%" fill="white"/>
<g font-family="-apple-system,BlinkMacSystemFont,Segoe UI,sans-serif" fill="#1d2733">
<text x="600.0" y="35.0" font-size="18" text-anchor="middle">Transaction component latency, 512-byte payload</text>
<line x1="110" y1="460.0" x2="1165" y2="460.0" stroke="#d9e0e6" stroke-width="1"/>
<text x="98.0" y="464.0" font-size="11" text-anchor="end">10^0</text>
<line x1="110" y1="330.0" x2="1165" y2="330.0" stroke="#d9e0e6" stroke-width="1"/>
<text x="98.0" y="334.0" font-size="11" text-anchor="end">10^1</text>
<line x1="110" y1="200.0" x2="1165" y2="200.0" stroke="#d9e0e6" stroke-width="1"/>
<text x="98.0" y="204.0" font-size="11" text-anchor="end">10^2</text>
<line x1="110" y1="70.0" x2="1165" y2="70.0" stroke="#d9e0e6" stroke-width="1"/>
<text x="98.0" y="74.0" font-size="11" text-anchor="end">10^3</text>
<rect x="121.4" y="142.9" width="58.4" height="317.1" fill="#C06C84"/>
<text x="150.6" y="478.0" font-size="9" text-anchor="end" transform="rotate(-38 150.6 478.0)">aegis_legacy_carrier / validate_carrier</text>
<rect x="202.5" y="247.9" width="58.4" height="212.1" fill="#C06C84"/>
<text x="231.7" y="478.0" font-size="9" text-anchor="end" transform="rotate(-38 231.7 478.0)">aegis_legacy_carrier_component / serialize_carrier</text>
<rect x="283.7" y="217.0" width="58.4" height="243.0" fill="#C06C84"/>
<text x="312.9" y="478.0" font-size="9" text-anchor="end" transform="rotate(-38 312.9 478.0)">aegis_submission_envelope_component / deserialize_submission_envelope</text>
<rect x="364.8" y="261.4" width="58.4" height="198.6" fill="#C06C84"/>
<text x="394.0" y="478.0" font-size="9" text-anchor="end" transform="rotate(-38 394.0 478.0)">aegis_submission_envelope_component / serialize_submission_envelope</text>
<rect x="446.0" y="175.2" width="58.4" height="284.8" fill="#C06C84"/>
<text x="475.2" y="478.0" font-size="9" text-anchor="end" transform="rotate(-38 475.2 478.0)">aegis_typed_transaction / verify_submission_envelope</text>
<rect x="527.1" y="250.4" width="58.4" height="209.6" fill="#C06C84"/>
<text x="556.3" y="478.0" font-size="9" text-anchor="end" transform="rotate(-38 556.3 478.0)">aegis_typed_transaction_component / hash_canonical_transaction</text>
<rect x="608.3" y="285.2" width="58.4" height="174.8" fill="#C06C84"/>
<text x="637.5" y="478.0" font-size="9" text-anchor="end" transform="rotate(-38 637.5 478.0)">aegis_typed_transaction_component / canonical_serialize_transaction</text>
<rect x="689.4" y="393.5" width="58.4" height="66.5" fill="#C06C84"/>
<text x="718.7" y="478.0" font-size="9" text-anchor="end" transform="rotate(-38 718.7 478.0)">aegis_typed_transaction_component / serialize_signing_payload</text>
<rect x="770.6" y="116.0" width="58.4" height="344.0" fill="#355C7D"/>
<text x="799.8" y="478.0" font-size="9" text-anchor="end" transform="rotate(-38 799.8 478.0)">public_rpc_transaction / validate_for_admission</text>
<rect x="851.7" y="425.8" width="58.4" height="34.2" fill="#355C7D"/>
<text x="881.0" y="478.0" font-size="9" text-anchor="end" transform="rotate(-38 881.0 478.0)">public_rpc_transaction_component / raw_hash</text>
<rect x="932.9" y="172.0" width="58.4" height="288.0" fill="#355C7D"/>
<text x="962.1" y="478.0" font-size="9" text-anchor="end" transform="rotate(-38 962.1 478.0)">public_rpc_transaction_component / deserialize_signed_json</text>
<rect x="1014.1" y="206.2" width="58.4" height="253.8" fill="#355C7D"/>
<text x="1043.3" y="478.0" font-size="9" text-anchor="end" transform="rotate(-38 1043.3 478.0)">public_rpc_transaction_component / serialize_signed_json</text>
<rect x="1095.2" y="139.4" width="58.4" height="320.6" fill="#355C7D"/>
<text x="1124.4" y="478.0" font-size="9" text-anchor="end" transform="rotate(-38 1124.4 478.0)">public_rpc_transaction_component / verify_embedded_signature</text>
<line x1="110" y1="70" x2="110" y2="460" stroke="#1d2733"/>
<line x1="110" y1="460" x2="1165" y2="460" stroke="#1d2733"/>
<text x="25.0" y="265.0" font-size="12" text-anchor="middle" transform="rotate(-90 25.0 265.0)">Median latency (microseconds, log scale)</text>
</g></svg>
