<svg xmlns="http://www.w3.org/2000/svg" width="1200" height="650" viewBox="0 0 1200 650">
<rect width="100%" height="100%" fill="white"/>
<g font-family="-apple-system,BlinkMacSystemFont,Segoe UI,sans-serif" fill="#1d2733">
<text x="600.0" y="35.0" font-size="18" text-anchor="middle">Runtime PQCManager signature latency, 512-byte payload</text>
<line x1="110" y1="460.0" x2="1165" y2="460.0" stroke="#d9e0e6" stroke-width="1"/>
<text x="98.0" y="464.0" font-size="11" text-anchor="end">10^1</text>
<line x1="110" y1="362.5" x2="1165" y2="362.5" stroke="#d9e0e6" stroke-width="1"/>
<text x="98.0" y="366.5" font-size="11" text-anchor="end">10^2</text>
<line x1="110" y1="265.0" x2="1165" y2="265.0" stroke="#d9e0e6" stroke-width="1"/>
<text x="98.0" y="269.0" font-size="11" text-anchor="end">10^3</text>
<line x1="110" y1="167.5" x2="1165" y2="167.5" stroke="#d9e0e6" stroke-width="1"/>
<text x="98.0" y="171.5" font-size="11" text-anchor="end">10^4</text>
<line x1="110" y1="70.0" x2="1165" y2="70.0" stroke="#d9e0e6" stroke-width="1"/>
<text x="98.0" y="74.0" font-size="11" text-anchor="end">10^5</text>
<rect x="128.5" y="186.5" width="95.0" height="273.5" fill="#355C7D"/>
<text x="175.9" y="478.0" font-size="9" text-anchor="end" transform="rotate(-38 175.9 478.0)">FN-DSA-1024 / sign</text>
<rect x="260.3" y="384.1" width="95.0" height="75.9" fill="#C06C84"/>
<text x="307.8" y="478.0" font-size="9" text-anchor="end" transform="rotate(-38 307.8 478.0)">FN-DSA-1024 / verify_valid</text>
<rect x="392.2" y="294.3" width="95.0" height="165.7" fill="#355C7D"/>
<text x="439.7" y="478.0" font-size="9" text-anchor="end" transform="rotate(-38 439.7 478.0)">ML-DSA-65 / sign</text>
<rect x="524.1" y="336.1" width="95.0" height="123.9" fill="#C06C84"/>
<text x="571.6" y="478.0" font-size="9" text-anchor="end" transform="rotate(-38 571.6 478.0)">ML-DSA-65 / verify_valid</text>
<rect x="656.0" y="317.6" width="95.0" height="142.4" fill="#355C7D"/>
<text x="703.4" y="478.0" font-size="9" text-anchor="end" transform="rotate(-38 703.4 478.0)">ML-DSA-87 / sign</text>
<rect x="787.8" y="331.7" width="95.0" height="128.3" fill="#C06C84"/>
<text x="835.3" y="478.0" font-size="9" text-anchor="end" transform="rotate(-38 835.3 478.0)">ML-DSA-87 / verify_valid</text>
<rect x="919.7" y="130.0" width="95.0" height="330.0" fill="#355C7D"/>
<text x="967.2" y="478.0" font-size="9" text-anchor="end" transform="rotate(-38 967.2 478.0)">SLH-DSA-SHAKE-128f-simple / sign</text>
<rect x="1051.6" y="246.4" width="95.0" height="213.6" fill="#C06C84"/>
<text x="1099.1" y="478.0" font-size="9" text-anchor="end" transform="rotate(-38 1099.1 478.0)">SLH-DSA-SHAKE-128f-simple / verify_valid</text>
<line x1="110" y1="70" x2="110" y2="460" stroke="#1d2733"/>
<line x1="110" y1="460" x2="1165" y2="460" stroke="#1d2733"/>
<text x="25.0" y="265.0" font-size="12" text-anchor="middle" transform="rotate(-90 25.0 265.0)">Median latency (microseconds, log scale)</text>
</g></svg>
